<svg 
 xmlns="http://www.w3.org/2000/svg"
 xmlns:xlink="http://www.w3.org/1999/xlink"
 width="0.27in" height="0.27in">
<path fill-rule="evenodd"  fill="rgb(209, 209, 209)"
 d="M24.426,23.718 L23.694,24.449 C22.960,25.183 21.770,25.183 21.036,24.449 L16.436,19.850 C14.785,20.884 12.833,21.483 10.741,21.483 C4.809,21.483 -0.000,16.674 -0.000,10.741 C-0.000,4.809 4.809,-0.000 10.741,-0.000 C16.674,-0.000 21.483,4.809 21.483,10.741 C21.483,12.845 20.877,14.808 19.831,16.465 L24.426,21.059 C25.160,21.793 25.160,22.984 24.426,23.718 ZM10.741,2.973 C6.451,2.973 2.973,6.451 2.973,10.741 C2.973,15.032 6.451,18.510 10.741,18.510 C15.032,18.510 18.510,15.032 18.510,10.741 C18.510,6.451 15.032,2.973 10.741,2.973 Z"/>
</svg>